# File created by Blade
# Date/Time:  Mon Sep 22 21:09:19 2014
# Frame Rate: 120.000 fps
#------------------------------------------------------
:FULLY-SPECIFIED
:DEGREES
3499
root -0.209117 32.588326 -8.343562 33.044060 5.779277 0.171049
Spine -34.095250 -7.540112 6.528243
Head -1.173297 -1.463093 -5.039845
LeftShoulder -18.267702 41.594054 23.677216
LeftArm 42.466353 -41.078736 -42.590712
LeftForeArm 18.150084 -0.000000 1.419080
LeftHand -24.275666 0.000000 2.949195
LeftHandThumb1 -26.253704 0.000000 33.147579
RightShoulder -16.414566 -42.021302 -26.350446
RightArm 47.413176 21.883556 42.397495
RightForeArm 17.198138 -0.000000 6.168830
RightHand 16.875854 -0.000000 -6.765355
RightHandThumb1 -24.326973 -0.000000 -32.862282
LeftUpLeg -32.462793 -2.359599 5.615677
LeftLeg 7.018387 -0.000000 -0.000000
LeftFoot -14.445467 0.076473 -7.259463
LeftToeBase -2.432446 -0.000000 0.000000
RightUpLeg -29.923064 -2.270320 2.657464
RightLeg -2.384041 -0.000000 0.000000
RightFoot -10.718071 -2.117781 24.788752
RightToeBase 24.133914 -0.000000 -0.000000
3500
root -0.200204 32.587469 -8.317862 33.031809 5.823227 0.157417
Spine -34.120971 -7.530766 6.552919
Head -1.285146 -1.484250 -5.038379
LeftShoulder -18.284318 41.503995 23.763026
LeftArm 42.388289 -41.224471 -42.451927
LeftForeArm 18.311774 -0.000000 1.104925
LeftHand -24.319515 0.000000 2.918725
LeftHandThumb1 -26.253704 0.000000 33.147579
RightShoulder -16.413084 -41.916975 -26.511149
RightArm 47.311682 21.942558 42.127882
RightForeArm 16.806101 -0.000000 5.540621
RightHand 16.824311 -0.000000 -6.499131
RightHandThumb1 -24.326973 -0.000000 -32.862282
LeftUpLeg -32.391546 -2.342785 5.615848
LeftLeg 6.961662 -0.000000 -0.000000
LeftFoot -14.303913 -0.138550 -7.369495
LeftToeBase -2.492935 -0.000000 0.000000
RightUpLeg -29.863903 -2.308973 2.679858
RightLeg -2.376607 -0.000000 0.000000
RightFoot -10.738293 -2.084715 24.815262
RightToeBase 24.178970 -0.000000 -0.000000
3501
root -0.192173 32.586976 -8.293790 33.021241 5.882347 0.140796
Spine -34.146247 -7.512944 6.577035
Head -1.392706 -1.529483 -5.044685
LeftShoulder -18.281341 41.486591 23.795184
LeftArm 42.277604 -41.389776 -42.185513
LeftForeArm 18.449576 -0.000000 0.798068
LeftHand -24.548447 -0.000000 2.851569
LeftHandThumb1 -26.253704 0.000000 33.147579
RightShoulder -16.438563 -41.852754 -26.645054
RightArm 47.203106 22.009623 41.808693
RightForeArm 16.673187 0.000000 4.910437
RightHand 16.814933 -0.000000 -6.240287
RightHandThumb1 -24.326973 -0.000000 -32.862282
LeftUpLeg -32.327450 -2.342024 5.636973
LeftLeg 6.901849 -0.000000 -0.000000
LeftFoot -14.169129 -0.367703 -7.512543
LeftToeBase -2.497354 -0.000000 0.000000
RightUpLeg -29.815370 -2.362202 2.713807
RightLeg -2.354932 -0.000000 0.000000
RightFoot -10.759703 -2.035920 24.817352
RightToeBase 24.215654 -0.000000 -0.000000
3502
root -0.183847 32.586489 -8.268973 33.019577 5.902976 0.128773
Spine -34.167679 -7.495154 6.586410
Head -1.531877 -1.566387 -5.042337
LeftShoulder -18.324151 41.369448 23.840695
LeftArm 42.190214 -41.641081 -42.082447
LeftForeArm 18.815128 0.000000 0.600250
LeftHand -24.685637 0.000000 2.891672
LeftHandThumb1 -26.253704 0.000000 33.147579
RightShoulder -16.440213 -41.764346 -26.793524
RightArm 47.076199 22.011592 41.434283
RightForeArm 16.605722 0.000000 4.247156
RightHand 16.935129 -0.000000 -6.241194
RightHandThumb1 -24.326973 -0.000000 -32.862282
LeftUpLeg -32.260949 -2.270930 5.611156
LeftLeg 6.844524 -0.000000 -0.000000
LeftFoot -14.098194 -0.568371 -7.475964
LeftToeBase -2.366242 -0.000000 0.000000
RightUpLeg -29.786574 -2.346698 2.701809
RightLeg -2.304508 -0.000000 0.000000
RightFoot -10.860200 -2.060144 24.731757
RightToeBase 24.329202 -0.000000 -0.000000
3503
root -0.174856 32.585627 -8.242120 33.027750 5.954418 0.109912
Spine -34.201492 -7.485433 6.610268
Head -1.649123 -1.675159 -5.043887
LeftShoulder -18.393706 41.267064 23.875562
LeftArm 42.018915 -41.759673 -41.828147
LeftForeArm 18.966239 0.000000 0.500164
LeftHand -24.982120 0.000000 2.821677
LeftHandThumb1 -26.253704 0.000000 33.147579
RightShoulder -16.477668 -41.726862 -26.901020
RightArm 46.958902 22.099548 41.073724
RightForeArm 16.621817 -0.000000 3.617292
RightHand 17.077911 -0.000000 -5.849517
RightHandThumb1 -24.326973 -0.000000 -32.862282
LeftUpLeg -32.205530 -2.229739 5.614846
LeftLeg 6.787410 -0.000000 -0.000000
LeftFoot -13.947510 -0.833108 -7.705936
LeftToeBase -2.551758 -0.000000 0.000000
RightUpLeg -29.742234 -2.355152 2.708459
RightLeg -2.301510 -0.000000 0.000000
RightFoot -10.880421 -2.051380 24.796589
RightToeBase 24.388785 -0.000000 -0.000000
3504
root -0.165948 32.585446 -8.213217 33.037582 5.991130 0.101081
Spine -34.232822 -7.484100 6.628384
Head -1.794132 -1.633432 -5.112461
LeftShoulder -18.477354 41.165463 23.907279
LeftArm 41.837027 -41.925834 -41.649478
LeftForeArm 19.222344 -0.000000 0.478525
LeftHand -25.138702 -0.000000 3.012460
LeftHandThumb1 -26.253704 0.000000 33.147579
RightShoulder -16.477023 -41.605458 -27.068545
RightArm 46.795907 22.178574 40.802331
RightForeArm 16.480682 0.000000 3.032470
RightHand 16.789496 -0.000000 -5.773785
RightHandThumb1 -24.326973 -0.000000 -32.862282
LeftUpLeg -32.135066 -2.200787 5.615433
LeftLeg 6.711055 -0.000000 -0.000000
LeftFoot -13.850717 -0.935558 -7.763248
LeftToeBase -2.433763 -0.000000 0.000000
RightUpLeg -29.701354 -2.355353 2.698362
RightLeg -2.288310 -0.000000 0.000000
RightFoot -10.923236 -2.051087 24.895615
RightToeBase 24.435484 -0.000000 -0.000000
3505
root -0.158342 32.584609 -8.184617 33.047051 6.030736 0.083029
Spine -34.260565 -7.440997 6.621137
Head -1.885778 -1.716468 -5.095651
LeftShoulder -18.515485 41.080715 23.949176
LeftArm 41.615758 -42.033061 -41.352749
LeftForeArm 19.356661 0.000000 0.485797
LeftHand -25.460914 -0.000000 3.177547
LeftHandThumb1 -26.253704 0.000000 33.147579
RightShoulder -16.518660 -41.523573 -27.206442
RightArm 46.597924 22.238979 40.516030
RightForeArm 16.482189 0.000000 2.477682
RightHand 16.955345 -0.000000 -5.564540
RightHandThumb1 -24.326973 -0.000000 -32.862282
LeftUpLeg -32.066578 -2.156881 5.622868
LeftLeg 6.629811 -0.000000 -0.000000
LeftFoot -13.702117 -1.075420 -7.921641
LeftToeBase -2.451978 -0.000000 0.000000
RightUpLeg -29.657107 -2.326432 2.688030
RightLeg -2.286027 -0.000000 0.000000
RightFoot -10.962127 -2.087190 25.033132
RightToeBase 24.511732 -0.000000 -0.000000
